<svg xmlns="http://www.w3.org/2000/svg" viewBox="0 0 32 32">
  <!-- body -->
  <ellipse cx="16" cy="21" rx="8.5" ry="10" fill="#89b4fa"/>
  <!-- belly -->
  <ellipse cx="16" cy="22.5" rx="5" ry="6.5" fill="#e6e9ef"/>
  <!-- head -->
  <ellipse cx="16" cy="9.5" rx="6.5" ry="7" fill="#89b4fa"/>
  <!-- face -->
  <ellipse cx="16" cy="10.5" rx="4" ry="3.5" fill="#e6e9ef"/>
  <!-- eyes: wide/excited -->
  <circle cx="13.8" cy="9" r="1.3" fill="#ffffff"/>
  <circle cx="18.2" cy="9" r="1.3" fill="#ffffff"/>
  <circle cx="14.1" cy="9" r="0.6" fill="#11111b"/>
  <circle cx="18.5" cy="9" r="0.6" fill="#11111b"/>
  <!-- eye shine -->
  <circle cx="14.4" cy="8.6" r="0.24" fill="white"/>
  <circle cx="18.8" cy="8.6" r="0.24" fill="white"/>
  <!-- beak -->
  <ellipse cx="16" cy="13" rx="1.6" ry="1.1" fill="#f9a825"/>
  <!-- wings -->
  <ellipse cx="8.5" cy="21" rx="2.2" ry="6" fill="#74c7ec" transform="rotate(-10 8.5 21)"/>
  <ellipse cx="23.5" cy="21" rx="2.2" ry="6" fill="#74c7ec" transform="rotate(10 23.5 21)"/>
  <!-- feet -->
  <ellipse cx="12.5" cy="30.5" rx="2.8" ry="1.1" fill="#f9a825"/>
  <ellipse cx="19.5" cy="30.5" rx="2.8" ry="1.1" fill="#f9a825"/>
  <!-- status: yellow dot with ! -->
  <circle cx="26" cy="6" r="5" fill="#f9e2af" stroke="#df8e1d" stroke-width="0.8"/>
  <rect x="24.8" y="3.5" width="1.4" height="4" rx="0.7" fill="#1a1b2e"/>
  <circle cx="25.5" cy="8.5" r="0.7" fill="#1a1b2e"/>
</svg>
