<svg xmlns="http://www.w3.org/2000/svg" viewBox="0 0 32 32">
  <!-- body -->
  <ellipse cx="16" cy="23" rx="8" ry="7" fill="#89b4fa"/>
  <!-- belly -->
  <ellipse cx="16" cy="24" rx="5" ry="5.2" fill="#e6e9ef"/>
  <!-- left wing -->
  <ellipse cx="7" cy="22.5" rx="3" ry="4" fill="#74c7ec" transform="rotate(-28 7 22.5)"/>
  <ellipse cx="7.2" cy="21.5" rx="1.1" ry="1.8" fill="#99d8f5" opacity="0.55" transform="rotate(-28 7.2 21.5)"/>
  <!-- right wing -->
  <ellipse cx="25" cy="22.5" rx="3" ry="4" fill="#74c7ec" transform="rotate(28 25 22.5)"/>
  <ellipse cx="24.8" cy="21.5" rx="1.1" ry="1.8" fill="#99d8f5" opacity="0.55" transform="rotate(28 24.8 21.5)"/>
  <!-- head -->
  <circle cx="16" cy="12" r="9" fill="#89b4fa"/>
  <!-- face patch -->
  <ellipse cx="16" cy="13.5" rx="5.8" ry="4.8" fill="#e6e9ef"/>
  <!-- eyes -->
  <circle cx="12.8" cy="11.5" r="2.8" fill="white"/>
  <circle cx="19.2" cy="11.5" r="2.8" fill="white"/>
  <circle cx="13.3" cy="12" r="1.6" fill="#11111b"/>
  <circle cx="19.7" cy="12" r="1.6" fill="#11111b"/>
  <!-- eye shine -->
  <circle cx="13.9" cy="11.3" r="0.6" fill="white"/>
  <circle cx="20.3" cy="11.3" r="0.6" fill="white"/>
  <!-- beak -->
  <ellipse cx="16" cy="17" rx="2" ry="1.4" fill="#f9a825"/>
  <!-- feet -->
  <ellipse cx="12.5" cy="29.5" rx="2.6" ry="1.1" fill="#f9a825"/>
  <ellipse cx="19.5" cy="29.5" rx="2.6" ry="1.1" fill="#f9a825"/>
  <!-- status: green dot -->
  <circle cx="27" cy="5" r="5" fill="#a6e3a1" stroke="#40a02b" stroke-width="0.8"/>
</svg>
