<svg xmlns="http://www.w3.org/2000/svg" viewBox="0 0 32 32">
  <!-- blob body -->
  <path d="M16 7 C22 7 27 11 27 17 C27 20 30 20 30 22 C30 24 27 24 25 23 C24 24 22 27 16 27 C10 27 8 24 7 23 C5 24 2 24 2 22 C2 20 5 20 5 17 C5 11 10 7 16 7 Z" fill="#f5f0e5"/>
  <!-- fluffy highlight -->
  <ellipse cx="15" cy="14" rx="4" ry="3" fill="white" opacity="0.55"/>
  <!-- eyes: X -->
  <line x1="11.3" y1="13.3" x2="14.7" y2="16.7" stroke="#f38ba8" stroke-width="1.6" stroke-linecap="round"/>
  <line x1="14.7" y1="13.3" x2="11.3" y2="16.7" stroke="#f38ba8" stroke-width="1.6" stroke-linecap="round"/>
  <line x1="17.3" y1="13.3" x2="20.7" y2="16.7" stroke="#f38ba8" stroke-width="1.6" stroke-linecap="round"/>
  <line x1="20.7" y1="13.3" x2="17.3" y2="16.7" stroke="#f38ba8" stroke-width="1.6" stroke-linecap="round"/>
  <!-- status: red dot -->
  <circle cx="27" cy="5" r="5" fill="#f38ba8" stroke="#e64553" stroke-width="0.8"/>
</svg>
