<svg xmlns="http://www.w3.org/2000/svg" viewBox="0 0 32 32">
  <!-- body -->
  <ellipse cx="16" cy="21" rx="8.5" ry="10" fill="#1a1b2e"/>
  <!-- belly -->
  <ellipse cx="16" cy="22.5" rx="5" ry="6.5" fill="#e0e0f0"/>
  <!-- head -->
  <ellipse cx="16" cy="9.5" rx="6.5" ry="7" fill="#1a1b2e"/>
  <!-- face -->
  <ellipse cx="16" cy="10.5" rx="4" ry="3.5" fill="#e0e0f0"/>
  <!-- eyes: X -->
  <line x1="12.5" y1="7.8" x2="15" y2="10.2" stroke="#f38ba8" stroke-width="1.2" stroke-linecap="round"/>
  <line x1="15" y1="7.8" x2="12.5" y2="10.2" stroke="#f38ba8" stroke-width="1.2" stroke-linecap="round"/>
  <line x1="17" y1="7.8" x2="19.5" y2="10.2" stroke="#f38ba8" stroke-width="1.2" stroke-linecap="round"/>
  <line x1="19.5" y1="7.8" x2="17" y2="10.2" stroke="#f38ba8" stroke-width="1.2" stroke-linecap="round"/>
  <!-- beak -->
  <ellipse cx="16" cy="13" rx="1.6" ry="1.1" fill="#f9e2af"/>
  <!-- wings -->
  <ellipse cx="8.5" cy="21" rx="2.2" ry="6" fill="#1a1b2e" transform="rotate(-10 8.5 21)"/>
  <ellipse cx="23.5" cy="21" rx="2.2" ry="6" fill="#1a1b2e" transform="rotate(10 23.5 21)"/>
  <!-- feet -->
  <ellipse cx="12.5" cy="30.5" rx="2.8" ry="1.1" fill="#f9e2af"/>
  <ellipse cx="19.5" cy="30.5" rx="2.8" ry="1.1" fill="#f9e2af"/>
  <!-- status: red dot (muted) -->
  <circle cx="26" cy="6" r="5" fill="#f38ba8" stroke="#e64553" stroke-width="0.8"/>
</svg>
