<svg xmlns="http://www.w3.org/2000/svg" viewBox="0 0 32 32">
  <!-- blob body: round fluff with jelly-stretch sides -->
  <path d="M16 7 C22 7 27 11 27 17 C27 20 30 20 30 22 C30 24 27 24 25 23 C24 24 22 27 16 27 C10 27 8 24 7 23 C5 24 2 24 2 22 C2 20 5 20 5 17 C5 11 10 7 16 7 Z" fill="#f5f0e5"/>
  <!-- fluffy highlight -->
  <ellipse cx="15" cy="14" rx="4" ry="3" fill="white" opacity="0.55"/>
  <!-- eyes -->
  <circle cx="13" cy="15" r="2.4" fill="#231f2e"/>
  <circle cx="19" cy="15" r="2.4" fill="#231f2e"/>
  <!-- eye shine -->
  <circle cx="13.9" cy="14.1" r="0.85" fill="white"/>
  <circle cx="19.9" cy="14.1" r="0.85" fill="white"/>
  <!-- status: green dot -->
  <circle cx="27" cy="5" r="5" fill="#a6e3a1" stroke="#40a02b" stroke-width="0.8"/>
</svg>
